<svg width="1200" height="360" viewBox="0 0 1200 360" fill="none" xmlns="http://www.w3.org/2000/svg">
  <rect width="1200" height="360" fill="#0B1020"/>
  <path d="M0 260C180 180 285 310 450 235C640 148 762 84 950 132C1060 160 1130 128 1200 92V360H0V260Z" fill="#155EEF" opacity="0.28"/>
  <path d="M0 302C165 252 270 336 430 284C590 232 715 178 890 224C1040 263 1124 210 1200 176V360H0V302Z" fill="#00C2A8" opacity="0.25"/>
  <circle cx="1010" cy="88" r="54" fill="#FFD166" opacity="0.9"/>
  <rect x="72" y="70" width="1056" height="220" rx="28" fill="#11182F" stroke="#2A355D"/>
  <text x="110" y="145" fill="#FFFFFF" font-family="Inter, Segoe UI, Arial, sans-serif" font-size="50" font-weight="800">AI Outcomes Suite</text>
  <text x="112" y="192" fill="#A7B4D6" font-family="Inter, Segoe UI, Arial, sans-serif" font-size="24">Generative AI engineering lab + 4 practical AI product MVPs</text>
  <text x="112" y="242" fill="#DCE6FF" font-family="Consolas, monospace" font-size="21">RAG • Evals • Agents • Safety • SAT Tutor • Compliance OS • Legal Agent</text>
  <g transform="translate(860 90)">
    <rect width="212" height="150" rx="18" fill="#0B1020" stroke="#3D4B7C"/>
    <text x="24" y="44" fill="#00C2A8" font-family="Consolas, monospace" font-size="18">npm test</text>
    <text x="24" y="82" fill="#FFFFFF" font-family="Consolas, monospace" font-size="18">build passed</text>
    <text x="24" y="120" fill="#FFD166" font-family="Consolas, monospace" font-size="18">smoke passed</text>
  </g>
</svg>
